<svg xmlns="http://www.w3.org/2000/svg" viewBox="0 0 750 500"><g id="freepik--background-complete--inject-64"><path d="M277,63.21c-7.05,0-125.72.78-133.17.54-.54,0-.83-.8-.29-1.06,4.7-2.33,10-1.86,14.91-3.51,2.88-1,4.64-2.85,6.64-5a13.63,13.63,0,0,1,6.17-4,13,13,0,0,1,6.73-.22c2.41.58,4.5,2,6.79,2.83,5.7,2.15,11.24.1,15.31-4.12,3.36-3.47,6.66-6.75,11.22-8.62a14.9,14.9,0,0,1,11.89-.17c4.35,2,7.34,5.94,11.43,8.32,4.84,2.84,10.64,2.17,16,3s9.47,5.36,14.16,8a10,10,0,0,0,5.12,1.58,30,30,0,0,0,3.12-.44c1.61-.2,3.15-.15,4.23,1.2C277.5,61.82,277.44,63.21,277,63.21Z" style="fill:#ebebeb"></path><path d="M699.89,76.69c-5.15,0-91.78.58-97.23.4-.39,0-.6-.59-.21-.78,3.43-1.7,7.33-1.36,10.89-2.56,2.1-.71,3.39-2.08,4.85-3.65a9.91,9.91,0,0,1,4.5-2.94A9.51,9.51,0,0,1,627.6,67a42.13,42.13,0,0,1,5,2.06c4.17,1.57,8.21.08,11.18-3,2.45-2.54,4.86-4.93,8.19-6.3a10.88,10.88,0,0,1,8.68-.12C663.79,61.08,666,64,669,65.72c3.53,2.06,7.77,1.58,11.67,2.2s6.91,3.91,10.34,5.81a7.34,7.34,0,0,0,3.74,1.16,22.17,22.17,0,0,0,2.27-.33,3.13,3.13,0,0,1,3.1.88C700.27,75.68,700.23,76.69,699.89,76.69Z" style="fill:#ebebeb"></path><path d="M189.85,135.26c-5.15,0-91.79.57-97.23.39a.42.42,0,0,1-.21-.78c3.43-1.7,7.32-1.35,10.89-2.56,2.1-.7,3.39-2.08,4.84-3.65a10.08,10.08,0,0,1,4.51-2.94,9.51,9.51,0,0,1,4.91-.16c1.76.42,3.28,1.43,5,2.06,4.16,1.57,8.21.08,11.18-3,2.45-2.54,4.86-4.93,8.19-6.3a10.92,10.92,0,0,1,8.68-.12c3.18,1.44,5.36,4.34,8.34,6.08,3.54,2.07,7.77,1.58,11.68,2.2s6.91,3.92,10.34,5.81a7.34,7.34,0,0,0,3.73,1.16c.77,0,1.52-.23,2.28-.32A3.08,3.08,0,0,1,190,134C190.23,134.24,190.19,135.26,189.85,135.26Z" style="fill:#ebebeb"></path><path d="M147.46,237.57c-5.15,0-91.79.57-97.23.4-.39,0-.6-.59-.22-.78,3.44-1.7,7.33-1.36,10.9-2.56,2.1-.71,3.38-2.08,4.84-3.65A10.1,10.1,0,0,1,70.26,228a9.62,9.62,0,0,1,4.91-.15c1.76.42,3.28,1.43,5,2.06,4.16,1.57,8.21.08,11.18-3,2.45-2.54,4.86-4.93,8.19-6.3a10.83,10.83,0,0,1,8.68-.12c3.18,1.44,5.36,4.33,8.34,6.07,3.54,2.07,7.77,1.58,11.68,2.21s6.91,3.91,10.33,5.81a7.4,7.4,0,0,0,3.74,1.16,22,22,0,0,0,2.28-.33,3.11,3.11,0,0,1,3.09.88C147.83,236.56,147.79,237.57,147.46,237.57Z" style="fill:#ebebeb"></path><path d="M362.6,181.24c-.1.29-136.55,0-134.83,0,.79,0-1.19-1.18-.42-1.55,4.44-2.21,9.3-2.27,14.14-2.71a21.8,21.8,0,0,0,8.26-2c2.57-1.35,4.17-3.68,6-5.84a25.63,25.63,0,0,1,23.3-8.83c9.7,1.52,17.35,8.91,27.07,10.27,5.84.82,11.36-1.44,17.06-2.24A20.92,20.92,0,0,1,336,170.67c3.08,1.53,5.92,2.82,9.4,3.05,2.67.19,5.35-.11,8-.14a18,18,0,0,1,11.82,4.72C365.68,178.69,367.06,181.24,362.6,181.24Z" style="fill:#ebebeb"></path><rect x="171.56" y="161.32" width="55.59" height="291.42" transform="translate(398.72 614.06) rotate(180)" style="fill:#ebebeb"></rect><rect x="207.72" y="170.79" width="10.81" height="11.13" transform="translate(426.25 352.71) rotate(180)" style="fill:#fff"></rect><rect x="193.9" y="170.79" width="10.81" height="11.13" transform="translate(398.6 352.71) rotate(180)" style="fill:#fff"></rect><rect x="207.72" y="189.68" width="10.81" height="11.13" transform="translate(426.25 390.49) rotate(180)" style="fill:#fff"></rect><rect x="193.9" y="189.68" width="10.81" height="11.13" transform="translate(398.6 390.49) rotate(180)" style="fill:#fff"></rect><rect x="207.72" y="208.57" width="10.81" height="11.13" transform="translate(426.25 428.27) rotate(180)" style="fill:#fff"></rect><rect x="193.9" y="208.57" width="10.81" height="11.13" transform="translate(398.6 428.27) rotate(180)" style="fill:#fff"></rect><rect x="207.72" y="227.46" width="10.81" height="11.13" transform="translate(426.25 466.06) rotate(180)" style="fill:#fff"></rect><rect x="193.9" y="227.46" width="10.81" height="11.13" transform="translate(398.6 466.06) rotate(180)" style="fill:#fff"></rect><rect x="207.72" y="246.36" width="10.81" height="11.13" transform="translate(426.25 503.84) rotate(180)" style="fill:#fff"></rect><rect x="193.9" y="246.36" width="10.81" height="11.13" transform="translate(398.6 503.84) rotate(180)" style="fill:#fff"></rect><rect x="207.72" y="265.25" width="10.81" height="11.13" transform="translate(426.25 541.62) rotate(180)" style="fill:#fff"></rect><rect x="193.9" y="265.25" width="10.81" height="11.13" transform="translate(398.6 541.62) rotate(180)" style="fill:#fff"></rect><rect x="207.72" y="284.14" width="10.81" height="11.13" transform="translate(426.25 579.4) rotate(180)" style="fill:#fff"></rect><rect x="193.9" y="284.14" width="10.81" height="11.13" transform="translate(398.6 579.4) rotate(180)" style="fill:#fff"></rect><rect x="207.72" y="303.03" width="10.81" height="11.13" transform="translate(426.25 617.19) rotate(180)" style="fill:#fff"></rect><rect x="193.9" y="303.03" width="10.81" height="11.13" transform="translate(398.6 617.19) rotate(180)" style="fill:#fff"></rect><rect x="207.72" y="321.92" width="10.81" height="11.13" transform="translate(426.25 654.97) rotate(180)" style="fill:#fff"></rect><rect x="193.9" y="321.92" width="10.81" height="11.13" transform="translate(398.6 654.97) rotate(180)" style="fill:#fff"></rect><rect x="207.72" y="340.81" width="10.81" height="11.13" transform="translate(426.25 692.75) rotate(180)" style="fill:#fff"></rect><rect x="193.9" y="340.81" width="10.81" height="11.13" transform="translate(398.6 692.75) rotate(180)" style="fill:#fff"></rect><rect x="207.72" y="359.7" width="10.81" height="11.13" transform="translate(426.25 730.54) rotate(180)" style="fill:#fff"></rect><rect x="193.9" y="359.7" width="10.81" height="11.13" transform="translate(398.6 730.54) rotate(180)" style="fill:#fff"></rect><rect x="207.72" y="378.6" width="10.81" height="11.13" transform="translate(426.25 768.32) rotate(180)" style="fill:#fff"></rect><rect x="193.9" y="378.6" width="10.81" height="11.13" transform="translate(398.6 768.32) rotate(180)" style="fill:#fff"></rect><rect x="207.72" y="397.49" width="10.81" height="11.13" transform="translate(426.25 806.1) rotate(180)" style="fill:#fff"></rect><rect x="193.9" y="397.49" width="10.81" height="11.13" transform="translate(398.6 806.1) rotate(180)" style="fill:#fff"></rect><rect x="207.72" y="416.38" width="10.81" height="11.13" transform="translate(426.25 843.88) rotate(180)" style="fill:#fff"></rect><rect x="180.19" y="416.38" width="10.81" height="11.13" style="fill:#fff"></rect><rect x="180.19" y="397.49" width="10.81" height="11.13" style="fill:#fff"></rect><rect x="180.19" y="378.6" width="10.81" height="11.13" style="fill:#fff"></rect><rect x="180.19" y="359.7" width="10.81" height="11.13" style="fill:#fff"></rect><rect x="180.19" y="340.81" width="10.81" height="11.13" style="fill:#fff"></rect><rect x="180.19" y="321.92" width="10.81" height="11.13" style="fill:#fff"></rect><rect x="180.19" y="303.03" width="10.81" height="11.13" style="fill:#fff"></rect><rect x="180.19" y="284.14" width="10.81" height="11.13" style="fill:#fff"></rect><rect x="180.19" y="265.25" width="10.81" height="11.13" style="fill:#fff"></rect><rect x="180.19" y="246.36" width="10.81" height="11.13" style="fill:#fff"></rect><rect x="180.19" y="227.46" width="10.81" height="11.13" style="fill:#fff"></rect><rect x="180.19" y="208.57" width="10.81" height="11.13" style="fill:#fff"></rect><rect x="180.19" y="189.68" width="10.81" height="11.13" style="fill:#fff"></rect><rect x="180.19" y="170.79" width="10.81" height="11.13" style="fill:#fff"></rect><rect x="193.9" y="416.38" width="10.81" height="11.13" transform="translate(398.6 843.88) rotate(180)" style="fill:#fff"></rect><rect x="127.73" y="161.32" width="43.83" height="291.42" transform="translate(299.3 614.06) rotate(180)" style="fill:#dbdbdb"></rect><rect x="132.25" y="416.38" width="8.92" height="11.13" style="fill:#c7c7c7"></rect><rect x="143.67" y="416.38" width="8.92" height="11.13" style="fill:#c7c7c7"></rect><rect x="132.25" y="397.49" width="8.92" height="11.13" style="fill:#c7c7c7"></rect><rect x="143.67" y="397.49" width="8.92" height="11.13" style="fill:#c7c7c7"></rect><rect x="132.25" y="378.6" width="8.92" height="11.13" style="fill:#c7c7c7"></rect><rect x="143.67" y="378.6" width="8.92" height="11.13" style="fill:#c7c7c7"></rect><rect x="132.25" y="359.7" width="8.92" height="11.13" style="fill:#c7c7c7"></rect><rect x="143.67" y="359.7" width="8.92" height="11.13" style="fill:#c7c7c7"></rect><rect x="132.25" y="340.81" width="8.92" height="11.13" style="fill:#c7c7c7"></rect><rect x="143.67" y="340.81" width="8.92" height="11.13" style="fill:#c7c7c7"></rect><rect x="132.25" y="321.92" width="8.92" height="11.13" style="fill:#c7c7c7"></rect><rect x="143.67" y="321.92" width="8.92" height="11.13" style="fill:#c7c7c7"></rect><rect x="132.25" y="303.03" width="8.92" height="11.13" style="fill:#c7c7c7"></rect><rect x="143.67" y="303.03" width="8.92" height="11.13" style="fill:#c7c7c7"></rect><rect x="132.25" y="284.14" width="8.92" height="11.13" style="fill:#c7c7c7"></rect><rect x="143.67" y="284.14" width="8.92" height="11.13" style="fill:#c7c7c7"></rect><rect x="132.25" y="265.25" width="8.92" height="11.13" style="fill:#c7c7c7"></rect><rect x="143.67" y="265.25" width="8.92" height="11.13" style="fill:#c7c7c7"></rect><rect x="132.25" y="246.36" width="8.92" height="11.13" style="fill:#c7c7c7"></rect><rect x="143.67" y="246.36" width="8.92" height="11.13" style="fill:#c7c7c7"></rect><rect x="132.25" y="227.46" width="8.92" height="11.13" style="fill:#c7c7c7"></rect><rect x="143.67" y="227.46" width="8.92" height="11.13" style="fill:#c7c7c7"></rect><rect x="132.25" y="208.57" width="8.92" height="11.13" style="fill:#c7c7c7"></rect><rect x="143.67" y="208.57" width="8.92" height="11.13" style="fill:#c7c7c7"></rect><rect x="132.25" y="189.68" width="8.92" height="11.13" style="fill:#c7c7c7"></rect><rect x="143.67" y="189.68" width="8.92" height="11.13" style="fill:#c7c7c7"></rect><rect x="132.25" y="170.79" width="8.92" height="11.13" style="fill:#c7c7c7"></rect><rect x="154.98" y="170.79" width="8.92" height="11.13" transform="translate(318.89 352.71) rotate(180)" style="fill:#c7c7c7"></rect><rect x="154.98" y="189.68" width="8.92" height="11.13" transform="translate(318.89 390.49) rotate(180)" style="fill:#c7c7c7"></rect><rect x="154.98" y="208.57" width="8.92" height="11.13" transform="translate(318.89 428.27) rotate(180)" style="fill:#c7c7c7"></rect><rect x="154.98" y="227.46" width="8.92" height="11.13" transform="translate(318.89 466.06) rotate(180)" style="fill:#c7c7c7"></rect><rect x="154.98" y="246.36" width="8.92" height="11.13" transform="translate(318.89 503.84) rotate(180)" style="fill:#c7c7c7"></rect><rect x="154.98" y="265.25" width="8.92" height="11.13" transform="translate(318.89 541.62) rotate(180)" style="fill:#c7c7c7"></rect><rect x="154.98" y="284.14" width="8.92" height="11.13" transform="translate(318.89 579.4) rotate(180)" style="fill:#c7c7c7"></rect><rect x="154.98" y="303.03" width="8.92" height="11.13" transform="translate(318.89 617.19) rotate(180)" style="fill:#c7c7c7"></rect><rect x="154.98" y="321.92" width="8.92" height="11.13" transform="translate(318.89 654.97) rotate(180)" style="fill:#c7c7c7"></rect><rect x="154.98" y="340.81" width="8.92" height="11.13" transform="translate(318.89 692.75) rotate(180)" style="fill:#c7c7c7"></rect><rect x="154.98" y="359.7" width="8.92" height="11.13" transform="translate(318.89 730.54) rotate(180)" style="fill:#c7c7c7"></rect><rect x="154.98" y="378.6" width="8.92" height="11.13" transform="translate(318.89 768.32) rotate(180)" style="fill:#c7c7c7"></rect><rect x="154.98" y="397.49" width="8.92" height="11.13" transform="translate(318.89 806.1) rotate(180)" style="fill:#c7c7c7"></rect><rect x="154.98" y="416.38" width="8.92" height="11.13" transform="translate(318.89 843.88) rotate(180)" style="fill:#c7c7c7"></rect><rect x="143.67" y="170.79" width="8.92" height="11.13" style="fill:#c7c7c7"></rect><rect x="282.23" y="244.15" width="55" height="208.59" transform="translate(619.47 696.89) rotate(180)" style="fill:#ebebeb"></rect><rect x="282.23" y="230.31" width="47.18" height="13.83" transform="translate(611.65 474.46) rotate(180)" style="fill:#c7c7c7"></rect><rect x="288.26" y="251.37" width="42.94" height="155.94" transform="translate(619.47 658.67) rotate(180)" style="fill:#dbdbdb"></rect><rect x="288.26" y="266.25" width="42.94" height="3.69" transform="translate(619.47 536.19) rotate(180)" style="fill:#fff"></rect><rect x="288.26" y="281.51" width="42.94" height="3.68" transform="translate(619.47 566.71) rotate(180)" style="fill:#fff"></rect><rect x="288.26" y="296.78" width="42.94" height="3.68" transform="translate(619.47 597.24) rotate(180)" style="fill:#fff"></rect><rect x="288.26" y="312.04" width="42.94" height="3.69" transform="translate(619.47 627.77) rotate(180)" style="fill:#fff"></rect><rect x="288.26" y="327.3" width="42.94" height="3.68" transform="translate(619.47 658.29) rotate(180)" style="fill:#fff"></rect><rect x="288.26" y="342.57" width="42.94" height="3.69" transform="translate(619.47 688.82) rotate(180)" style="fill:#fff"></rect><rect x="288.26" y="357.83" width="42.94" height="3.68" transform="translate(619.47 719.35) rotate(180)" style="fill:#fff"></rect><rect x="288.26" y="373.09" width="42.94" height="3.68" transform="translate(619.47 749.87) rotate(180)" style="fill:#fff"></rect><rect x="288.26" y="388.36" width="42.94" height="3.69" transform="translate(619.47 780.4) rotate(180)" style="fill:#fff"></rect><rect x="288.26" y="403.62" width="42.94" height="3.69" transform="translate(619.47 810.92) rotate(180)" style="fill:#fff"></rect><rect x="247.78" y="244.15" width="34.45" height="208.59" transform="translate(530.02 696.89) rotate(180)" style="fill:#dbdbdb"></rect><rect x="252.95" y="230.31" width="29.28" height="13.83" transform="translate(535.19 474.46) rotate(180)" style="fill:#a6a6a6"></rect><rect x="251" y="251.37" width="26.49" height="155.94" transform="translate(528.48 658.67) rotate(180)" style="fill:#c7c7c7"></rect><rect x="251" y="266.25" width="26.49" height="3.69" transform="translate(528.48 536.19) rotate(180)" style="fill:#fff"></rect><rect x="251" y="281.51" width="26.49" height="3.68" transform="translate(528.48 566.71) rotate(180)" style="fill:#fff"></rect><rect x="251" y="296.78" width="26.49" height="3.68" transform="translate(528.48 597.24) rotate(180)" style="fill:#fff"></rect><rect x="251" y="312.04" width="26.49" height="3.69" transform="translate(528.48 627.77) rotate(180)" style="fill:#fff"></rect><rect x="251" y="327.3" width="26.49" height="3.68" transform="translate(528.48 658.29) rotate(180)" style="fill:#fff"></rect><rect x="251" y="342.57" width="26.49" height="3.69" transform="translate(528.48 688.82) rotate(180)" style="fill:#fff"></rect><rect x="251" y="357.83" width="26.49" height="3.68" transform="translate(528.48 719.35) rotate(180)" style="fill:#fff"></rect><rect x="251" y="373.09" width="26.49" height="3.68" transform="translate(528.48 749.87) rotate(180)" style="fill:#fff"></rect><rect x="251" y="388.36" width="26.49" height="3.69" transform="translate(528.48 780.4) rotate(180)" style="fill:#fff"></rect><rect x="251" y="403.62" width="26.49" height="3.69" transform="translate(528.48 810.92) rotate(180)" style="fill:#fff"></rect><rect x="95.16" y="247.67" width="29.37" height="34.7" transform="translate(219.69 530.03) rotate(180)" style="fill:#dbdbdb"></rect><rect x="76.53" y="247.67" width="18.63" height="35.97" transform="translate(171.69 531.3) rotate(180)" style="fill:#c7c7c7"></rect><rect x="75.29" y="262.99" width="18.48" height="20.65" transform="translate(169.07 546.63) rotate(180)" style="fill:#dbdbdb"></rect><rect x="63.76" y="262.99" width="11.53" height="20.65" transform="translate(139.05 546.63) rotate(180)" style="fill:#c7c7c7"></rect><rect x="88.3" y="280.11" width="47.5" height="172.63" transform="translate(224.1 732.85) rotate(180)" style="fill:#ebebeb"></rect><rect x="115.43" y="287.53" width="14.94" height="6.1" transform="translate(245.8 581.17) rotate(180)" style="fill:#fff"></rect><rect x="96.32" y="287.53" width="14.94" height="6.1" transform="translate(207.59 581.17) rotate(180)" style="fill:#fff"></rect><rect x="115.43" y="297.89" width="14.94" height="6.1" transform="translate(245.8 601.89) rotate(180)" style="fill:#fff"></rect><rect x="96.32" y="297.89" width="14.94" height="6.1" transform="translate(207.59 601.89) rotate(180)" style="fill:#fff"></rect><rect x="115.43" y="308.25" width="14.94" height="6.1" transform="translate(245.8 622.61) rotate(180)" style="fill:#fff"></rect><rect x="96.32" y="308.25" width="14.94" height="6.1" transform="translate(207.59 622.61) rotate(180)" style="fill:#fff"></rect><rect x="115.43" y="318.62" width="14.94" height="6.1" transform="translate(245.8 643.34) rotate(180)" style="fill:#fff"></rect><rect x="96.32" y="318.62" width="14.94" height="6.1" transform="translate(207.59 643.34) rotate(180)" style="fill:#fff"></rect><rect x="115.43" y="328.98" width="14.94" height="6.1" transform="translate(245.8 664.06) rotate(180)" style="fill:#fff"></rect><rect x="96.32" y="328.98" width="14.94" height="6.1" transform="translate(207.59 664.06) rotate(180)" style="fill:#fff"></rect><rect x="115.43" y="339.34" width="14.94" height="6.1" transform="translate(245.8 684.78) rotate(180)" style="fill:#fff"></rect><rect x="96.32" y="339.34" width="14.94" height="6.1" transform="translate(207.59 684.78) rotate(180)" style="fill:#fff"></rect><rect x="115.43" y="349.7" width="14.94" height="6.1" transform="translate(245.8 705.51) rotate(180)" style="fill:#fff"></rect><rect x="96.32" y="349.7" width="14.94" height="6.1" transform="translate(207.59 705.51) rotate(180)" style="fill:#fff"></rect><rect x="115.43" y="360.06" width="14.94" height="6.1" transform="translate(245.8 726.23) rotate(180)" style="fill:#fff"></rect><rect x="96.32" y="360.06" width="14.94" height="6.1" transform="translate(207.59 726.23) rotate(180)" style="fill:#fff"></rect><rect x="115.43" y="370.43" width="14.94" height="6.1" transform="translate(245.8 746.95) rotate(180)" style="fill:#fff"></rect><rect x="96.32" y="370.43" width="14.94" height="6.1" transform="translate(207.59 746.95) rotate(180)" style="fill:#fff"></rect><rect x="115.43" y="380.79" width="14.94" height="6.1" transform="translate(245.8 767.68) rotate(180)" style="fill:#fff"></rect><rect x="96.32" y="380.79" width="14.94" height="6.1" transform="translate(207.59 767.68) rotate(180)" style="fill:#fff"></rect><rect x="115.43" y="391.15" width="14.94" height="6.1" transform="translate(245.8 788.4) rotate(180)" style="fill:#fff"></rect><rect x="96.32" y="391.15" width="14.94" height="6.1" transform="translate(207.59 788.4) rotate(180)" style="fill:#fff"></rect><rect x="115.43" y="401.51" width="14.94" height="6.1" transform="translate(245.8 809.12) rotate(180)" style="fill:#fff"></rect><rect x="96.32" y="401.51" width="14.94" height="6.1" transform="translate(207.59 809.12) rotate(180)" style="fill:#fff"></rect><rect x="115.43" y="411.87" width="14.94" height="6.1" transform="translate(245.8 829.85) rotate(180)" style="fill:#fff"></rect><rect x="96.32" y="411.87" width="14.94" height="6.1" transform="translate(207.59 829.85) rotate(180)" style="fill:#fff"></rect><rect x="115.43" y="422.23" width="14.94" height="6.1" transform="translate(245.8 850.57) rotate(180)" style="fill:#fff"></rect><rect x="96.32" y="422.23" width="14.94" height="6.1" transform="translate(207.59 850.57) rotate(180)" style="fill:#fff"></rect><rect x="49.81" y="280.11" width="38.49" height="172.63" transform="translate(138.11 732.85) rotate(180)" style="fill:#c7c7c7"></rect><rect x="53.67" y="422.23" width="12.26" height="6.1" style="fill:#ebebeb"></rect><rect x="69.36" y="422.23" width="12.26" height="6.1" style="fill:#ebebeb"></rect><rect x="53.67" y="411.87" width="12.26" height="6.1" style="fill:#ebebeb"></rect><rect x="69.36" y="411.87" width="12.26" height="6.1" style="fill:#ebebeb"></rect><rect x="53.67" y="401.51" width="12.26" height="6.1" style="fill:#ebebeb"></rect><rect x="69.36" y="401.51" width="12.26" height="6.1" style="fill:#ebebeb"></rect><rect x="53.67" y="391.15" width="12.26" height="6.1" style="fill:#ebebeb"></rect><rect x="69.36" y="391.15" width="12.26" height="6.1" style="fill:#ebebeb"></rect><rect x="53.67" y="380.79" width="12.26" height="6.1" style="fill:#ebebeb"></rect><rect x="69.36" y="380.79" width="12.26" height="6.1" style="fill:#ebebeb"></rect><rect x="53.67" y="370.43" width="12.26" height="6.1" style="fill:#ebebeb"></rect><rect x="69.36" y="370.43" width="12.26" height="6.1" style="fill:#ebebeb"></rect><rect x="53.67" y="360.06" width="12.26" height="6.1" style="fill:#ebebeb"></rect><rect x="69.36" y="360.06" width="12.26" height="6.1" style="fill:#ebebeb"></rect><rect x="53.67" y="349.7" width="12.26" height="6.1" style="fill:#ebebeb"></rect><rect x="69.36" y="349.7" width="12.26" height="6.1" style="fill:#ebebeb"></rect><rect x="53.67" y="339.34" width="12.26" height="6.1" style="fill:#ebebeb"></rect><rect x="69.36" y="339.34" width="12.26" height="6.1" style="fill:#ebebeb"></rect><rect x="53.67" y="328.98" width="12.26" height="6.1" style="fill:#ebebeb"></rect><rect x="69.36" y="328.98" width="12.26" height="6.1" style="fill:#ebebeb"></rect><rect x="53.67" y="318.62" width="12.26" height="6.1" style="fill:#ebebeb"></rect><rect x="69.36" y="318.62" width="12.26" height="6.1" style="fill:#ebebeb"></rect><rect x="53.67" y="308.25" width="12.26" height="6.1" style="fill:#ebebeb"></rect><rect x="69.36" y="308.25" width="12.26" height="6.1" style="fill:#ebebeb"></rect><rect x="53.67" y="297.89" width="12.26" height="6.1" style="fill:#ebebeb"></rect><rect x="69.36" y="297.89" width="12.26" height="6.1" style="fill:#ebebeb"></rect><rect x="53.67" y="287.53" width="12.26" height="6.1" style="fill:#ebebeb"></rect><rect x="69.36" y="287.53" width="12.26" height="6.1" style="fill:#ebebeb"></rect><rect x="349.87" y="340.25" width="56.03" height="112.49" transform="translate(755.76 792.99) rotate(180)" style="fill:#ebebeb"></rect><rect x="387.17" y="349.99" width="9.91" height="6.89" transform="translate(784.25 706.87) rotate(180)" style="fill:#dbdbdb"></rect><rect x="387.17" y="364.71" width="9.91" height="6.89" transform="translate(784.25 736.31) rotate(180)" style="fill:#dbdbdb"></rect><rect x="387.17" y="379.43" width="9.91" height="6.89" transform="translate(784.25 765.75) rotate(180)" style="fill:#dbdbdb"></rect><rect x="387.17" y="394.15" width="9.91" height="6.89" transform="translate(784.25 795.19) rotate(180)" style="fill:#dbdbdb"></rect><rect x="387.17" y="408.87" width="9.91" height="6.89" transform="translate(784.25 824.63) rotate(180)" style="fill:#dbdbdb"></rect><rect x="387.17" y="423.59" width="9.91" height="6.89" transform="translate(784.25 854.07) rotate(180)" style="fill:#dbdbdb"></rect><rect x="387.17" y="438.31" width="9.91" height="6.89" transform="translate(784.25 883.51) rotate(180)" style="fill:#dbdbdb"></rect><rect x="372.91" y="349.99" width="9.91" height="6.89" transform="translate(755.73 706.87) rotate(180)" style="fill:#dbdbdb"></rect><rect x="372.91" y="364.71" width="9.91" height="6.89" transform="translate(755.73 736.31) rotate(180)" style="fill:#dbdbdb"></rect><rect x="372.91" y="379.43" width="9.91" height="6.89" transform="translate(755.73 765.75) rotate(180)" style="fill:#dbdbdb"></rect><rect x="372.91" y="394.15" width="9.91" height="6.89" transform="translate(755.73 795.19) rotate(180)" style="fill:#dbdbdb"></rect><rect x="372.91" y="408.87" width="9.91" height="6.89" transform="translate(755.73 824.63) rotate(180)" style="fill:#dbdbdb"></rect><rect x="372.91" y="423.59" width="9.91" height="6.89" transform="translate(755.73 854.07) rotate(180)" style="fill:#dbdbdb"></rect><rect x="372.91" y="438.31" width="9.91" height="6.89" transform="translate(755.73 883.51) rotate(180)" style="fill:#dbdbdb"></rect><rect x="358.68" y="349.99" width="9.91" height="6.89" transform="translate(727.27 706.87) rotate(180)" style="fill:#dbdbdb"></rect><rect x="358.68" y="364.71" width="9.91" height="6.89" transform="translate(727.27 736.31) rotate(180)" style="fill:#dbdbdb"></rect><rect x="358.68" y="379.43" width="9.91" height="6.89" transform="translate(727.27 765.75) rotate(180)" style="fill:#dbdbdb"></rect><rect x="358.68" y="394.15" width="9.91" height="6.89" transform="translate(727.27 795.19) rotate(180)" style="fill:#dbdbdb"></rect><rect x="358.68" y="408.87" width="9.91" height="6.89" transform="translate(727.27 824.63) rotate(180)" style="fill:#dbdbdb"></rect><rect x="358.68" y="423.59" width="9.91" height="6.89" transform="translate(727.27 854.07) rotate(180)" style="fill:#dbdbdb"></rect><rect x="358.68" y="438.31" width="9.91" height="6.89" transform="translate(727.27 883.51) rotate(180)" style="fill:#dbdbdb"></rect><rect x="349.87" y="328.53" width="37.3" height="11.72" transform="translate(737.04 668.78) rotate(180)" style="fill:#dbdbdb"></rect><rect x="349.87" y="321.28" width="23.65" height="7.26" transform="translate(723.38 649.81) rotate(180)" style="fill:#ebebeb"></rect><rect x="310.56" y="340.25" width="39.31" height="112.49" transform="translate(660.43 792.99) rotate(180)" style="fill:#dbdbdb"></rect><rect x="314.58" y="437.21" width="8.07" height="6.89" style="fill:#c7c7c7"></rect><rect x="314.58" y="422.49" width="8.07" height="6.89" style="fill:#c7c7c7"></rect><rect x="314.58" y="407.77" width="8.07" height="6.89" style="fill:#c7c7c7"></rect><rect x="314.58" y="393.05" width="8.07" height="6.89" style="fill:#c7c7c7"></rect><rect x="314.58" y="378.33" width="8.07" height="6.89" style="fill:#c7c7c7"></rect><rect x="314.58" y="363.61" width="8.07" height="6.89" style="fill:#c7c7c7"></rect><rect x="314.58" y="348.89" width="8.07" height="6.89" style="fill:#c7c7c7"></rect><rect x="326.19" y="437.21" width="8.07" height="6.89" style="fill:#c7c7c7"></rect><rect x="326.19" y="422.49" width="8.07" height="6.89" style="fill:#c7c7c7"></rect><rect x="326.19" y="407.77" width="8.07" height="6.89" style="fill:#c7c7c7"></rect><rect x="326.19" y="393.05" width="8.07" height="6.89" style="fill:#c7c7c7"></rect><rect x="326.19" y="378.33" width="8.07" height="6.89" style="fill:#c7c7c7"></rect><rect x="326.19" y="363.61" width="8.07" height="6.89" style="fill:#c7c7c7"></rect><rect x="326.19" y="348.89" width="8.07" height="6.89" style="fill:#c7c7c7"></rect><rect x="337.77" y="437.21" width="8.07" height="6.89" style="fill:#c7c7c7"></rect><rect x="337.77" y="422.49" width="8.07" height="6.89" style="fill:#c7c7c7"></rect><rect x="337.77" y="407.77" width="8.07" height="6.89" style="fill:#c7c7c7"></rect><rect x="337.77" y="393.05" width="8.07" height="6.89" style="fill:#c7c7c7"></rect><rect x="337.77" y="378.33" width="8.07" height="6.89" style="fill:#c7c7c7"></rect><rect x="337.77" y="363.61" width="8.07" height="6.89" style="fill:#c7c7c7"></rect><rect x="337.77" y="348.89" width="8.07" height="6.89" style="fill:#c7c7c7"></rect><rect x="316.52" y="328.53" width="33.35" height="11.72" transform="translate(666.38 668.78) rotate(180)" style="fill:#c7c7c7"></rect><rect x="331.79" y="321.28" width="18.07" height="7.26" transform="translate(681.66 649.81) rotate(180)" style="fill:#dbdbdb"></rect></g><g id="freepik--Floor--inject-64"><polygon points="49.81 452.49 131.11 452.24 212.4 452.15 375 451.99 537.6 452.15 618.89 452.24 700.19 452.49 618.89 452.73 537.6 452.82 375 452.99 212.4 452.82 131.11 452.73 49.81 452.49" style="fill:#263238"></polygon></g><g id="freepik--Trees--inject-64"><path d="M83.7,369s22.6,50.19-14.29,50.23-13-51.91-13-51.91-8.54-3.75,1.33-31.77,14.31-28,18.42-28c5.2,0,10,12.11,6.52,30.73C82.64,338.2,95.65,361.42,83.7,369Z" style="fill:#37474f"></path><polygon points="66.17 452.49 69.65 376.83 73.28 452.48 66.17 452.49" style="fill:#263238"></polygon><polygon points="68.23 408.55 81.63 392.88 71.13 410.62 68.23 408.55" style="fill:#263238"></polygon><path d="M87.72,374.38s-10.53-4.17-18.86,10.37c-8.55,14.91,2.2,24.72,10.71,18.86,0,0,6.69,14,20.05,10.67s15.52-14,15.52-14,11.85.82,12.18-8S119,375.51,119,375.51s-.53-22-14.89-21.86S87.72,374.38,87.72,374.38Z" style="fill:#455a64"></path><polygon points="97.57 452.49 100.51 386.89 103.59 452.48 97.57 452.49" style="fill:#263238"></polygon><polygon points="99.64 411.54 90.4 393.15 101.16 408.67 99.64 411.54" style="fill:#263238"></polygon><path d="M694.36,369s22.6,50.19-14.29,50.23-13-51.91-13-51.91-8.54-3.75,1.33-31.77,14.31-28,18.42-28c5.2,0,10.05,12.11,6.53,30.73C693.31,338.2,706.31,361.42,694.36,369Z" style="fill:#37474f"></path><polygon points="676.84 452.49 680.31 376.83 683.95 452.48 676.84 452.49" style="fill:#263238"></polygon><polygon points="678.9 408.55 692.29 392.88 681.79 410.62 678.9 408.55" style="fill:#263238"></polygon><path d="M167.08,379.34s-19.7,44,12.62,44S191,377.82,191,377.82s7.48-3.3-1.23-27.83-12.58-24.52-16.18-24.52c-4.56,0-8.78,10.63-5.66,26.94C168,352.41,156.6,372.77,167.08,379.34Z" style="fill:#37474f"></path><polygon points="182.6 452.48 179.41 386.22 176.37 452.49 182.6 452.48" style="fill:#263238"></polygon><polygon points="180.71 414 168.95 400.3 178.18 415.82 180.71 414" style="fill:#263238"></polygon><path d="M627.92,374.38s-10.52-4.17-18.86,10.37c-8.54,14.91,2.2,24.72,10.71,18.86,0,0,6.7,14,20.06,10.67s15.51-14,15.51-14,11.86.82,12.18-8-8.36-16.69-8.36-16.69-.53-22-14.89-21.86S627.92,374.38,627.92,374.38Z" style="fill:#455a64"></path><polygon points="637.78 452.49 640.71 386.89 643.79 452.48 637.78 452.49" style="fill:#263238"></polygon><polygon points="639.81 411.47 630.61 393.15 641.63 408.64 639.81 411.47" style="fill:#263238"></polygon></g><g id="freepik--Device--inject-64"><path d="M700.19,67.68V329.75a12.11,12.11,0,0,1-12.11,12.11H284.39a12.12,12.12,0,0,1-12.12-12.11V67.68a12.12,12.12,0,0,1,12.12-12.12H688.08A12.12,12.12,0,0,1,700.19,67.68Z" style="fill:#263238"></path><rect x="292.4" y="72.8" width="387.67" height="251.83" style="fill:#fff"></rect><polygon points="493.31 263.82 568.81 263.81 567.44 252.85 598.49 252.85 595.22 233.56 492.8 233.59 493.31 263.82" style="fill:#ebebeb"></polygon><polygon points="594.86 72.8 596.76 81.33 655.87 81.28 653.01 72.8 594.86 72.8" style="fill:#ebebeb"></polygon><polygon points="629.84 102.75 625.09 85.44 597.67 85.46 601.52 102.76 629.84 102.75" style="fill:#ebebeb"></polygon><polygon points="641.07 153.98 648.61 181.91 680.07 181.9 680.07 136.5 641.07 153.98" style="fill:#dbdbdb"></polygon><polygon points="677.94 132.21 639.36 149.63 627.87 106.89 669.21 106.86 677.94 132.21" style="fill:#ebebeb"></polygon><path d="M292.4,178.73v25.81l7.14,9.84L384.45,198l3-20-27.66-34-42.89,8.92,0,.07C314.27,162.51,305.48,171.38,292.4,178.73Z" style="fill:#ebebeb"></path><polygon points="324.81 324.62 388.81 324.62 397.1 256.32 338.84 256.28 324.81 324.62" style="fill:#dbdbdb"></polygon><polygon points="292.4 225.08 292.4 286.71 314.05 286.71 320.46 258.9 292.4 225.08" style="fill:#ebebeb"></polygon><polygon points="448.16 85.57 446.23 116.09 477.58 116.07 477.63 85.55 448.16 85.57" style="fill:#ebebeb"></polygon><polygon points="381.06 132.21 435.43 120.86 439.38 72.8 391.52 72.8 381.06 132.21" style="fill:#ebebeb"></polygon><polygon points="470.83 81.42 477.62 81.41 477.63 72.8 471.01 72.8 470.83 81.42" style="fill:#ebebeb"></polygon><polygon points="448.43 81.44 464.48 81.42 464.76 72.8 448.97 72.8 448.43 81.44" style="fill:#ebebeb"></polygon><polygon points="292.4 295.31 292.4 324.62 305.29 324.62 312.05 295.31 292.4 295.31" style="fill:#ebebeb"></polygon><polygon points="476.69 256.25 410.04 256.37 405.55 300.07 476.39 300.06 476.69 256.25" style="fill:#ebebeb"></polygon><polygon points="403.03 324.62 436.69 324.62 437.84 305.14 405.03 305.14 403.03 324.62" style="fill:#ebebeb"></polygon><polygon points="476.27 318.21 476.36 305.13 446.57 305.14 445.95 318.21 476.27 318.21" style="fill:#ebebeb"></polygon><polygon points="445.65 324.62 476.23 324.62 476.25 321.46 445.81 321.46 445.65 324.62" style="fill:#ebebeb"></polygon><polygon points="383.28 205.63 377.03 246.62 329.08 246.63 306.93 220.43 383.28 205.63" style="fill:#dbdbdb"></polygon><path d="M292.4,128.78V167.9c6.21-4.54,10.43-9.62,12-15C307.24,143.54,302.46,135.05,292.4,128.78Z" style="fill:#ebebeb"></path><polygon points="658.67 72.8 662.15 82.83 680.07 88.7 680.07 72.8 658.67 72.8" style="fill:#ebebeb"></polygon><polygon points="633.07 85.44 638.08 102.74 680.07 102.71 680.07 92.77 658.49 85.42 633.07 85.44" style="fill:#ebebeb"></polygon><polygon points="677.72 106.86 680.07 113.39 680.07 106.86 677.72 106.86" style="fill:#ebebeb"></polygon><polygon points="494.01 305.02 494.35 324.62 647.33 324.62 680.07 311.49 680.07 305 494.01 305.02" style="fill:#ebebeb"></polygon><polygon points="573.3 299.87 569.38 268.37 493.39 268.38 493.92 299.88 573.3 299.87" style="fill:#ebebeb"></polygon><polygon points="623.58 153.34 548.05 153.38 556.4 227.47 641.38 227.44 623.58 153.34" style="fill:#ebebeb"></polygon><polygon points="545.04 211.76 492.43 211.78 492.69 227.38 546.57 227.36 545.04 211.76" style="fill:#ebebeb"></polygon><polygon points="647.49 252.84 642.85 233.55 607.02 233.56 610.63 252.84 647.49 252.84" style="fill:#ebebeb"></polygon><polygon points="585.6 258.07 590.31 289.56 619.12 289.55 621.07 299.87 680.07 299.86 680.07 262.49 666.6 258.05 585.6 258.07" style="fill:#dbdbdb"></polygon><polygon points="658.5 215.9 666.44 248.11 680.07 252.95 680.07 215.89 658.5 215.9" style="fill:#ebebeb"></polygon><polygon points="649.83 186.47 656.85 212.51 680.07 212.5 680.07 186.46 649.83 186.47" style="fill:#ebebeb"></polygon><polygon points="477.03 205.6 395.3 205.62 389.34 250.2 476.73 250.18 477.03 205.6" style="fill:#ebebeb"></polygon><polygon points="491.43 153.4 539.32 153.38 544.63 207.58 492.35 207.6 491.43 153.4" style="fill:#dbdbdb"></polygon><polygon points="490.86 123.28 616.44 123.65 622.49 148.81 491.36 148.87 490.86 123.28" style="fill:#ebebeb"></polygon><polygon points="398.94 178.4 477.21 178.36 477.07 200.23 396.02 200.26 398.94 178.4" style="fill:#ebebeb"></polygon><polygon points="399.68 172.9 370.72 141.27 426.34 129.43 422.13 172.89 399.68 172.9" style="fill:#ebebeb"></polygon><polygon points="431.22 172.89 477.25 172.87 477.6 120.77 462.89 120.78 434.97 127.24 431.22 172.89" style="fill:#ebebeb"></polygon><polygon points="489.52 72.8 490.45 116.06 615.8 115.99 613.59 106.9 592.43 106.92 585.49 72.8 489.52 72.8" style="fill:#ebebeb"></polygon><polygon points="330.76 102.94 375.91 102.92 381.79 72.8 339.17 72.8 330.76 102.94" style="fill:#ebebeb"></polygon><polygon points="318.52 146.9 369.57 135.44 374.91 108.06 329.33 108.09 318.52 146.9" style="fill:#ebebeb"></polygon><path d="M292.4,72.8v47.25c9.31,3.84,16.36,9,20.49,14.89L331.17,72.8Z" style="fill:#ebebeb"></path><polygon points="489.57 282.56 481.57 282.56 481.57 115.74 618.82 115.74 615.78 101.52 680.07 101.52 680.07 109.52 625.67 109.52 628.71 123.74 489.57 123.74 489.57 282.56" style="fill:#DC3545"></polygon><polygon points="503.2 291.24 485.57 283.94 467.94 291.24 485.57 265.08 503.2 291.24" style="fill:#37474f"></polygon><rect x="292.4" y="72.8" width="106.08" height="31.07" style="fill:#455a64"></rect><path d="M342,94.51a1.19,1.19,0,0,1-1.2,1.21H333a1.2,1.2,0,0,1-.9-.4,1.21,1.21,0,0,1,.06-1.71l6.5-5.88a2.78,2.78,0,0,0,.92-2.11,2.86,2.86,0,0,0-.72-1.91,2.82,2.82,0,0,0-2.11-.92,2.86,2.86,0,0,0-1.91.73l-.68.61a1.19,1.19,0,0,1-1.71-.09,1.21,1.21,0,0,1,.09-1.71l.68-.61a5.17,5.17,0,0,1,3.53-1.36,5.26,5.26,0,0,1,3.9,1.73A5.14,5.14,0,0,1,342,85.62a5.28,5.28,0,0,1-1.73,3.91l-4.15,3.75h4.68A1.2,1.2,0,0,1,342,94.51Z" style="fill:#fff"></path><path d="M345,88a9.37,9.37,0,0,1,1.49-5.25,4.62,4.62,0,0,1,8.14,0,10.09,10.09,0,0,1,0,10.49,4.61,4.61,0,0,1-8.14,0A9.39,9.39,0,0,1,345,88Zm8.66,0a7.33,7.33,0,0,0-1.05-3.91,2.56,2.56,0,0,0-2-1.34,2.66,2.66,0,0,0-2.09,1.34,7.33,7.33,0,0,0-1,3.91,7.24,7.24,0,0,0,1,3.88,2.69,2.69,0,0,0,2.09,1.36,2.59,2.59,0,0,0,2-1.36A7.24,7.24,0,0,0,353.7,88Z" style="fill:#fff"></path><path d="M360.62,88a9.37,9.37,0,0,1,1.49-5.25,4.62,4.62,0,0,1,8.14,0,10.09,10.09,0,0,1,0,10.49,4.61,4.61,0,0,1-8.14,0A9.39,9.39,0,0,1,360.62,88Zm8.66,0a7.33,7.33,0,0,0-1-3.91,2.56,2.56,0,0,0-2-1.34,2.66,2.66,0,0,0-2.09,1.34A7.33,7.33,0,0,0,363.05,88a7.24,7.24,0,0,0,1.05,3.88,2.69,2.69,0,0,0,2.09,1.36,2.59,2.59,0,0,0,2-1.36A7.24,7.24,0,0,0,369.28,88Z" style="fill:#fff"></path><path d="M382.32,88.82v6.31a.6.6,0,0,1-.6.59.58.58,0,0,1-.58-.59V90.62l-1.54,2.14a.6.6,0,0,1-.49.25h0a.61.61,0,0,1-.49-.25l-1.53-2.14v4.51a.6.6,0,0,1-1.19,0V88.82a.59.59,0,0,1,.59-.59h0a.55.55,0,0,1,.47.24l2.13,3,2.13-3a.58.58,0,0,1,.48-.24h0A.6.6,0,0,1,382.32,88.82Z" style="fill:#fff"></path><path d="M322.22,97.05h-4V89.11a3.42,3.42,0,0,0-3.42-3.42h-2.72v-4h2.72a7.43,7.43,0,0,1,7.42,7.42Z" style="fill:#fff"></path><polygon points="312.9 89.77 312.9 77.62 306.83 83.69 312.9 89.77" style="fill:#fff"></polygon><rect x="292.4" y="293.7" width="387.67" height="30.92" style="fill:#fff"></rect><rect x="292.4" y="293.7" width="30.92" height="30.92" style="fill:#37474f"></rect><rect x="643.04" y="276.14" width="30.92" height="30.92" style="fill:#37474f"></rect><path d="M335.8,301.55h-1.38l-.28.74a.33.33,0,0,1-.3.2l-.11,0a.32.32,0,0,1-.18-.41l1.25-3.35a.32.32,0,0,1,.31-.2.3.3,0,0,1,.3.2l1.26,3.35a.34.34,0,0,1-.19.41l-.11,0a.31.31,0,0,1-.29-.2Zm-.23-.63-.46-1.22-.46,1.22Z" style="fill:#37474f"></path><path d="M340.08,302a.31.31,0,0,1-.19.4l-.13,0h0a.43.43,0,0,1-.22-.06.7.7,0,0,1-.18-.2,1.55,1.55,0,0,1-.12-.69.43.43,0,0,0-.07-.24.55.55,0,0,0-.17-.17,1,1,0,0,0-.32-.13H338v1.23a.32.32,0,1,1-.63,0v-3.36a.31.31,0,0,1,.31-.31h1a1.22,1.22,0,0,1,.78,2.16,1,1,0,0,1,.2.21,1.07,1.07,0,0,1,.18.61,1.24,1.24,0,0,0,0,.34A.3.3,0,0,1,340.08,302Zm-.79-2.29a.58.58,0,0,0-.59-.59H338v1.18h.7A.59.59,0,0,0,339.29,299.72Z" style="fill:#37474f"></path><path d="M343.65,302a.33.33,0,0,1-.2.4l-.13,0h0a.44.44,0,0,1-.23-.06.7.7,0,0,1-.18-.2,1.55,1.55,0,0,1-.12-.69.43.43,0,0,0-.07-.24.55.55,0,0,0-.17-.17.92.92,0,0,0-.32-.13h-.67v1.23a.32.32,0,1,1-.63,0v-3.36a.31.31,0,0,1,.31-.31h1a1.22,1.22,0,0,1,.78,2.16,1,1,0,0,1,.2.21,1.07,1.07,0,0,1,.18.61,1.87,1.87,0,0,0,0,.34A.34.34,0,0,1,343.65,302Zm-.8-2.29a.58.58,0,0,0-.59-.59h-.7v1.18h.7A.59.59,0,0,0,342.85,299.72Z" style="fill:#37474f"></path><path d="M344.61,298.81a.31.31,0,0,1,.31-.31.32.32,0,0,1,.32.31v3.36a.32.32,0,0,1-.32.32.31.31,0,0,1-.31-.32Z" style="fill:#37474f"></path><path d="M347.61,302.43l0,0v0l0,0h0l0,0L346.1,299a.3.3,0,0,1,.17-.4.31.31,0,0,1,.41.16l1.11,2.64,1.11-2.64a.31.31,0,0,1,.58.24l-1.41,3.33,0,0s0,0,0,0l0,0v0l0,0h0a.09.09,0,0,1,0,0h-.25l-.05,0Z" style="fill:#37474f"></path><path d="M351.84,301.55h-1.38l-.28.74a.32.32,0,0,1-.29.2l-.11,0a.32.32,0,0,1-.19-.41l1.26-3.35a.33.33,0,0,1,.6,0l1.26,3.35a.32.32,0,0,1-.19.41l-.11,0a.32.32,0,0,1-.29-.2Zm-.23-.63-.46-1.22-.46,1.22Z" style="fill:#37474f"></path><path d="M353.49,302.17v-3.36a.32.32,0,0,1,.63,0v3h1.55a.32.32,0,0,1,0,.64H353.8A.32.32,0,0,1,353.49,302.17Z" style="fill:#37474f"></path><path d="M337.38,307.93V317a.86.86,0,0,1-.86.85.84.84,0,0,1-.85-.85v-7.58l-.61.35a.75.75,0,0,1-.44.13.86.86,0,0,1-.44-1.59l1.89-1.13s.05,0,.07,0,0,0,.07,0l.1,0h.06a.18.18,0,0,1,.1,0h.17a.1.1,0,0,0,.07,0,.14.14,0,0,1,.09,0h.06c.05,0,.06.05.09.05l.06.05.07,0,.06.06s0,0,0,.06l.07.07v0s0,0,0,0,0,0,0,.08,0,.06,0,.08a.56.56,0,0,0,0,.07c0,.05,0,.08,0,.11Z" style="fill:#37474f"></path><path d="M345,311.34a3.75,3.75,0,0,1,1.13,2.71,3.85,3.85,0,0,1-1.13,2.7,3.79,3.79,0,0,1-2.7,1.12h0a3.75,3.75,0,0,1-2.68-1.12.87.87,0,0,1,1.23-1.24,2.06,2.06,0,0,0,2.95,0,2.09,2.09,0,0,0,.61-1.46,2,2,0,0,0-.61-1.48,2,2,0,0,0-1.47-.6,2,2,0,0,0-1.48.6.87.87,0,0,1-1.23,0c-.06-.06-.11-.14-.17-.2s0-.05,0-.05a.08.08,0,0,0,0-.07c0-.05,0-.08,0-.11s0,0,0,0a1.22,1.22,0,0,1,0-.27l.47-4a.88.88,0,0,1,.38-.61s0,0,.06,0l.05,0a.87.87,0,0,1,.4-.09h4.55a.87.87,0,1,1,0,1.74h-3.8l-.18,1.53a4.06,4.06,0,0,1,1-.14A3.76,3.76,0,0,1,345,311.34Z" style="fill:#37474f"></path><path d="M350.15,309.55a1.16,1.16,0,0,1,1.15,1.15,1.15,1.15,0,1,1-1.15-1.15Zm0,6.13a1.17,1.17,0,0,1,1.15,1.16,1.15,1.15,0,1,1-1.15-1.16Z" style="fill:#37474f"></path><path d="M358.21,311.32a3.76,3.76,0,0,1,1.13,2.7,3.8,3.8,0,0,1-1.13,2.71,3.8,3.8,0,0,1-5.41,0A.87.87,0,1,1,354,315.5a2.06,2.06,0,0,0,1.47.6,2.12,2.12,0,0,0,1.48-.6,2.09,2.09,0,0,0,.61-1.48,2,2,0,0,0-.61-1.47,2.07,2.07,0,0,0-1.47-.61.81.81,0,0,1-.63-.28s0,0,0,0a.86.86,0,0,1,0-1.23l1.57-1.6h-2.5a.86.86,0,0,1-.86-.88.85.85,0,0,1,.86-.86h4.55a.86.86,0,0,1,.88.86,1,1,0,0,1-.11.42,1.06,1.06,0,0,1-.16.21l-1.94,2A3.71,3.71,0,0,1,358.21,311.32Z" style="fill:#37474f"></path><path d="M370,315a.85.85,0,0,1-.86.85H369V317a.85.85,0,1,1-1.69,0v-1.17h-4.86a.74.74,0,0,1-.52-.18.83.83,0,0,1-.14-1.19l5.7-7.09s0,0,0,0l.05-.06a.18.18,0,0,0,.08-.05l.06-.05s0,0,.09,0,0,0,.06,0,.05,0,.09,0a.1.1,0,0,0,.07,0h.26a.11.11,0,0,0,.08,0l.09,0h.06l.08.06s0,0,.07.05a0,0,0,0,1,0,0s.05,0,.05,0l.06.06,0,.06a.32.32,0,0,1,.06.08l0,.06a.92.92,0,0,0,0,.09s0,.05,0,.06a.15.15,0,0,1,0,.1s0,0,0,.07v6.28h.16A.86.86,0,0,1,370,315Zm-2.71-4.65-3.07,3.81h3.07Z" style="fill:#37474f"></path><path d="M373.55,315.83h-.93v1.63a.42.42,0,0,1-.83,0V313a.41.41,0,0,1,.41-.42h1.35a1.61,1.61,0,1,1,0,3.22Zm-.93-.84h.93a.77.77,0,1,0,0-1.54h-.93Z" style="fill:#37474f"></path><path d="M380.7,313v4.43a.43.43,0,0,1-.43.41.41.41,0,0,1-.41-.41V314.3l-1.08,1.5a.41.41,0,0,1-.34.17h0a.43.43,0,0,1-.35-.17L377,314.3v3.16a.42.42,0,0,1-.84,0V313a.42.42,0,0,1,.42-.42h0a.42.42,0,0,1,.33.17l1.49,2.08,1.5-2.08a.41.41,0,0,1,.34-.17h0A.44.44,0,0,1,380.7,313Z" style="fill:#37474f"></path><path d="M620.39,301.5a.29.29,0,0,1,.41-.05,1.82,1.82,0,0,0,1.09.44,1.17,1.17,0,0,0,.71-.21.5.5,0,0,0,.25-.41.37.37,0,0,0-.05-.18.68.68,0,0,0-.17-.17,2.5,2.5,0,0,0-.78-.27h0a3.27,3.27,0,0,1-.73-.22,1.2,1.2,0,0,1-.53-.44,1,1,0,0,1-.13-.47,1,1,0,0,1,.46-.83,1.68,1.68,0,0,1,1-.3,2.2,2.2,0,0,1,1.24.45.3.3,0,0,1,.08.41.29.29,0,0,1-.4.08,1.67,1.67,0,0,0-.92-.36,1.13,1.13,0,0,0-.64.19.45.45,0,0,0-.21.36.27.27,0,0,0,0,.16.7.7,0,0,0,.15.15,2.06,2.06,0,0,0,.71.25h0a3,3,0,0,1,.79.24,1.32,1.32,0,0,1,.57.47,1,1,0,0,1,.13.48,1.12,1.12,0,0,1-.48.89,1.82,1.82,0,0,1-1.06.32,2.49,2.49,0,0,1-1.46-.57A.3.3,0,0,1,620.39,301.5Z" style="fill:#37474f"></path><path d="M625.65,300.94H625v1.23a.32.32,0,0,1-.64,0v-3.36a.32.32,0,0,1,.32-.31h1a1.22,1.22,0,0,1,0,2.44Zm-.7-.63h.7a.6.6,0,0,0,.59-.59.59.59,0,0,0-.59-.59H625Z" style="fill:#37474f"></path><path d="M627.64,302.17v-3.36a.31.31,0,0,1,.31-.31h1.86a.32.32,0,0,1,0,.63h-1.54v1h1.32a.32.32,0,1,1,0,.64h-1.32v1h1.54a.32.32,0,0,1,0,.64H628A.31.31,0,0,1,627.64,302.17Z" style="fill:#37474f"></path><path d="M631,302.17v-3.36a.31.31,0,0,1,.32-.31h1.86a.32.32,0,0,1,0,.63h-1.54v1H633a.32.32,0,0,1,0,.64h-1.32v1h1.54a.32.32,0,0,1,0,.64h-1.86A.32.32,0,0,1,631,302.17Z" style="fill:#37474f"></path><path d="M634.39,302.17v-3.36a.31.31,0,0,1,.31-.31h.68a2,2,0,0,1,0,4h-.68A.32.32,0,0,1,634.39,302.17Zm.63-.32h.36a1.36,1.36,0,0,0,0-2.72H635Z" style="fill:#37474f"></path><path d="M626.77,311.32a3.79,3.79,0,0,1,1.12,2.7,3.83,3.83,0,0,1-6.54,2.71.87.87,0,0,1,1.24-1.23,2,2,0,0,0,1.46.6,2.1,2.1,0,0,0,1.48-.6,2.06,2.06,0,0,0,.62-1.48,2,2,0,0,0-.62-1.47,2.05,2.05,0,0,0-1.46-.61.78.78,0,0,1-.63-.28s0,0,0,0a.88.88,0,0,1,0-1.23l1.57-1.6h-2.49a.87.87,0,0,1-.87-.88.86.86,0,0,1,.87-.86H627a.86.86,0,0,1,.88.86.88.88,0,0,1-.11.42,1,1,0,0,1-.15.21l-1.94,2A3.71,3.71,0,0,1,626.77,311.32Z" style="fill:#37474f"></path><path d="M638.58,315a.85.85,0,0,1-.87.85h-.15V317a.85.85,0,1,1-1.7,0v-1.17H631a.76.76,0,0,1-.53-.18.84.84,0,0,1-.14-1.19l5.71-7.09s0,0,0,0,0,0,0-.06.07,0,.08-.05a.15.15,0,0,0,.06-.05.24.24,0,0,1,.09,0,.08.08,0,0,1,.07,0s0,0,.09,0,0,0,.06,0h.26a.12.12,0,0,0,.08,0l.09,0h.06l.08.06.08.05s0,0,0,0,0,0,0,0,.05,0,.06.06,0,0,0,.06l.06.08a.11.11,0,0,0,0,.06.19.19,0,0,1,0,.09s0,.05,0,.06a.28.28,0,0,1,0,.1s0,0,0,.07v6.28h.15A.86.86,0,0,1,638.58,315Zm-2.72-4.65-3.07,3.81h3.07Z" style="fill:#37474f"></path><path d="M644.87,313v4.43a.43.43,0,0,1-.42.41.41.41,0,0,1-.42-.41V314.3L643,315.8a.41.41,0,0,1-.34.17h0a.43.43,0,0,1-.35-.17l-1.07-1.5v3.16a.42.42,0,0,1-.84,0V313a.42.42,0,0,1,.42-.42h0a.42.42,0,0,1,.33.17l1.49,2.08,1.5-2.08a.41.41,0,0,1,.34-.17h0A.44.44,0,0,1,644.87,313Z" style="fill:#37474f"></path><path d="M646.69,317.46V313a.42.42,0,1,1,.83,0v1.8h2V313a.42.42,0,1,1,.83,0v4.43a.42.42,0,0,1-.83,0v-1.8h-2v1.8a.42.42,0,0,1-.83,0Z" style="fill:#37474f"></path><path d="M651.49,285.19v-3.36a.31.31,0,0,1,.31-.31.31.31,0,0,1,.32.31v3h1.54a.32.32,0,1,1,0,.63H651.8A.31.31,0,0,1,651.49,285.19Z" style="fill:#fff"></path><path d="M654.76,281.83a.31.31,0,0,1,.32-.31.32.32,0,0,1,.32.31v3.36a.31.31,0,0,1-.32.31.31.31,0,0,1-.32-.31Z" style="fill:#fff"></path><path d="M659.89,281.83v3.36a.32.32,0,0,1-.32.31.31.31,0,0,1-.31-.31v-2.4l-.82,1.14a.32.32,0,0,1-.26.13h0a.3.3,0,0,1-.26-.13l-.82-1.14v2.4a.32.32,0,0,1-.63,0v-3.36a.31.31,0,0,1,.31-.31h0a.3.3,0,0,1,.25.13l1.13,1.57,1.14-1.57a.29.29,0,0,1,.25-.13h0A.32.32,0,0,1,659.89,281.83Z" style="fill:#fff"></path><path d="M661.31,281.83a.31.31,0,0,1,.31-.31.32.32,0,0,1,.32.31v3.36a.31.31,0,0,1-.32.31.3.3,0,0,1-.31-.31Z" style="fill:#fff"></path><path d="M665.44,282.15h-.9v3a.32.32,0,0,1-.63,0v-3H663a.32.32,0,0,1-.31-.32.31.31,0,0,1,.31-.31h2.43a.32.32,0,0,1,.32.31A.33.33,0,0,1,665.44,282.15Z" style="fill:#fff"></path><path d="M657.16,298a.85.85,0,0,1-.86.85h-.16V300a.85.85,0,1,1-1.69,0v-1.17h-4.86a.77.77,0,0,1-.52-.18.82.82,0,0,1-.14-1.19l5.7-7.09s0,0,0,0l.05-.06.07-.05.07,0s0,0,.09,0a.05.05,0,0,1,.06,0s0,0,.09,0h.4s.07,0,.1,0h.06l.08.06.07,0h0s0,0,0,0l.07.06,0,.06s0,0,.06.08l0,.06a.39.39,0,0,1,0,.09v.06a.13.13,0,0,1,0,.09s0,.05,0,.08v6.28h.16A.86.86,0,0,1,657.16,298Zm-2.71-4.65-3.07,3.81h3.07Z" style="fill:#fff"></path><path d="M659.15,295.5a6.57,6.57,0,0,1,1.05-3.69,3.45,3.45,0,0,1,2.86-1.71,3.5,3.5,0,0,1,2.86,1.71,7.11,7.11,0,0,1,0,7.37,3.54,3.54,0,0,1-2.86,1.71,3.5,3.5,0,0,1-2.86-1.71A6.58,6.58,0,0,1,659.15,295.5Zm6.09,0a5.14,5.14,0,0,0-.74-2.75,1.81,1.81,0,0,0-1.44-.94,1.86,1.86,0,0,0-1.46.94,5.14,5.14,0,0,0-.74,2.75,5,5,0,0,0,.74,2.72,1.87,1.87,0,0,0,1.46,1,1.81,1.81,0,0,0,1.44-1A5,5,0,0,0,665.24,295.5Z" style="fill:#fff"></path><path d="M309.14,316.58h-8v-4h8a3.42,3.42,0,1,0,0-6.83h-2.71v-4h2.71a7.42,7.42,0,1,1,0,14.83Z" style="fill:#fff"></path><polygon points="307.24 309.82 307.24 297.67 301.17 303.75 307.24 309.82" style="fill:#fff"></polygon><rect x="657.59" y="176.85" width="16.37" height="16.37" style="fill:#37474f"></rect><rect x="664.97" y="180.35" width="1.61" height="9.38" style="fill:#fff"></rect><rect x="664.97" y="180.35" width="1.61" height="9.38" transform="translate(850.81 -480.74) rotate(90)" style="fill:#fff"></rect><rect x="657.59" y="204.2" width="16.37" height="16.37" style="fill:#37474f"></rect><rect x="664.97" y="207.69" width="1.61" height="9.38" transform="translate(878.16 -453.39) rotate(90)" style="fill:#fff"></rect></g></svg>
